<?xml version="1.0" encoding="UTF-8" standalone="no"?>
<!DOCTYPE svg PUBLIC "-//W3C//DTD SVG 1.1//EN" "http://www.w3.org/Graphics/SVG/1.1/DTD/svg11.dtd">
<svg width="100%" height="100%" viewBox="0 0 1080 1350" version="1.1" xmlns="http://www.w3.org/2000/svg" xmlns:xlink="http://www.w3.org/1999/xlink" xml:space="preserve" xmlns:serif="http://www.serif.com/" style="fill-rule:evenodd;clip-rule:evenodd;stroke-linejoin:round;stroke-miterlimit:2;">
    <g transform="matrix(3.80498,0,0,3.80498,215.576,798.791)">
        <path d="M0,-65.068L-44.625,0L-32.199,0L34.462,-39.094L13.24,-39.094L-17.921,-20.818L-4.114,-40.952L-1.538,-33.224L8.625,-39.184L0,-65.068ZM3.46,-18.221L9.533,0L21.68,0L13.624,-24.181L3.46,-18.221Z" style="fill:rgb(228,87,46);fill-rule:nonzero;"/>
    </g>
    <g transform="matrix(3.80498,0,0,3.80498,46.2888,716.826)">
        <path d="M0,-17.552L21.221,-17.552L9.294,0L0,-17.552Z" style="fill:rgb(228,87,46);"/>
    </g>
    <g transform="matrix(0.576347,0,0,0.576347,-5452.12,-240.431)">
        <g transform="matrix(266.567,0,0,266.567,11210.2,1656.11)">
        </g>
        <text x="10126.7px" y="1656.11px" style="font-family:'Airstrike';font-size:266.567px;fill:white;">a<tspan x="10323.9px 10493.2px 10657.4px 10839.2px 11035.9px " y="1656.11px 1656.11px 1656.11px 1656.11px 1656.11px ">stron</tspan></text>
    </g>
    <g transform="matrix(0.255919,0,0,0.255919,-2161.53,243.015)">
        <g transform="matrix(266.567,0,0,266.567,10244.3,2112.08)">
            <path d="M0.058,-0L0.058,-0.72L0.719,-0.72L0.719,-0.599L0.179,-0.599L0.179,-0.421L0.614,-0.421L0.614,-0.3L0.179,-0.3L0.179,-0.121L0.719,-0.121L0.719,-0L0.058,-0Z" style="fill:white;fill-rule:nonzero;"/>
        </g>
        <g transform="matrix(266.567,0,0,266.567,10448.5,2112.08)">
            <path d="M0.056,-0L0.056,-0.72L0.193,-0.72L0.655,-0.17L0.655,-0.72L0.776,-0.72L0.776,-0L0.639,-0L0.176,-0.551L0.176,-0L0.056,-0Z" style="fill:white;fill-rule:nonzero;"/>
        </g>
        <g transform="matrix(266.567,0,0,266.567,10670.3,2112.08)">
            <path d="M0.058,-0L0.058,-0.72L0.643,-0.72C0.667,-0.72 0.69,-0.714 0.71,-0.702C0.731,-0.69 0.747,-0.674 0.76,-0.653C0.772,-0.632 0.778,-0.61 0.778,-0.585L0.778,-0.135C0.778,-0.11 0.772,-0.088 0.76,-0.067C0.747,-0.046 0.731,-0.03 0.71,-0.018C0.69,-0.006 0.667,-0 0.643,-0L0.058,-0ZM0.196,-0.121L0.639,-0.121C0.644,-0.121 0.648,-0.122 0.652,-0.126C0.655,-0.13 0.657,-0.134 0.657,-0.139L0.657,-0.581C0.657,-0.586 0.655,-0.59 0.652,-0.594C0.648,-0.598 0.644,-0.599 0.639,-0.599L0.196,-0.599C0.191,-0.599 0.187,-0.598 0.183,-0.594C0.179,-0.59 0.177,-0.586 0.177,-0.581L0.177,-0.139C0.177,-0.134 0.179,-0.13 0.183,-0.126C0.187,-0.122 0.191,-0.121 0.196,-0.121Z" style="fill:white;fill-rule:nonzero;"/>
        </g>
        <g transform="matrix(266.567,0,0,266.567,10892.6,2112.08)">
            <path d="M0.189,-0C0.164,-0 0.142,-0.006 0.121,-0.018C0.1,-0.03 0.084,-0.046 0.072,-0.067C0.06,-0.088 0.054,-0.11 0.054,-0.135L0.054,-0.72L0.174,-0.72L0.174,-0.139C0.174,-0.134 0.176,-0.13 0.179,-0.126C0.183,-0.122 0.187,-0.121 0.192,-0.121L0.635,-0.121C0.64,-0.121 0.644,-0.122 0.648,-0.126C0.651,-0.13 0.653,-0.134 0.653,-0.139L0.653,-0.72L0.774,-0.72L0.774,-0.135C0.774,-0.11 0.768,-0.088 0.756,-0.067C0.743,-0.046 0.727,-0.03 0.707,-0.018C0.686,-0.006 0.664,-0 0.639,-0L0.189,-0Z" style="fill:white;fill-rule:nonzero;"/>
        </g>
        <g transform="matrix(266.567,0,0,266.567,11113.3,2112.08)">
            <path d="M0.638,-0L0.417,-0.264L0.574,-0.264L0.773,-0.028L0.773,-0L0.638,-0ZM0.056,-0L0.056,-0.719L0.641,-0.719C0.665,-0.719 0.688,-0.713 0.708,-0.701C0.729,-0.688 0.745,-0.672 0.758,-0.652C0.77,-0.631 0.776,-0.609 0.776,-0.584L0.776,-0.386C0.776,-0.362 0.77,-0.34 0.758,-0.319C0.745,-0.299 0.729,-0.282 0.708,-0.27C0.688,-0.258 0.665,-0.252 0.641,-0.252L0.176,-0.251L0.176,-0L0.056,-0ZM0.194,-0.373L0.637,-0.373C0.642,-0.373 0.646,-0.374 0.65,-0.378C0.653,-0.381 0.655,-0.386 0.655,-0.391L0.655,-0.581C0.655,-0.586 0.653,-0.59 0.65,-0.594C0.646,-0.597 0.642,-0.599 0.637,-0.599L0.194,-0.599C0.189,-0.599 0.185,-0.597 0.181,-0.594C0.178,-0.59 0.176,-0.586 0.176,-0.581L0.176,-0.391C0.176,-0.386 0.178,-0.381 0.181,-0.378C0.185,-0.374 0.189,-0.373 0.194,-0.373Z" style="fill:white;fill-rule:nonzero;"/>
        </g>
        <g transform="matrix(266.567,0,0,266.567,11333.2,2112.08)">
            <path d="M0.058,-0L0.058,-0.585C0.058,-0.61 0.064,-0.632 0.076,-0.653C0.088,-0.674 0.104,-0.69 0.125,-0.702C0.146,-0.714 0.168,-0.72 0.193,-0.72L0.643,-0.72C0.667,-0.72 0.69,-0.714 0.71,-0.702C0.731,-0.69 0.747,-0.674 0.76,-0.653C0.772,-0.632 0.778,-0.61 0.778,-0.585L0.778,-0L0.657,-0L0.657,-0.247L0.178,-0.247L0.178,-0L0.058,-0ZM0.178,-0.367L0.657,-0.367L0.657,-0.581C0.657,-0.586 0.655,-0.59 0.652,-0.594C0.648,-0.598 0.644,-0.599 0.639,-0.599L0.196,-0.599C0.191,-0.599 0.187,-0.598 0.183,-0.594C0.18,-0.59 0.178,-0.586 0.178,-0.581L0.178,-0.367Z" style="fill:white;fill-rule:nonzero;"/>
        </g>
        <g transform="matrix(266.567,0,0,266.567,11556.1,2112.08)">
            <path d="M0.056,-0L0.056,-0.72L0.193,-0.72L0.655,-0.17L0.655,-0.72L0.776,-0.72L0.776,-0L0.639,-0L0.176,-0.551L0.176,-0L0.056,-0Z" style="fill:white;fill-rule:nonzero;"/>
        </g>
        <g transform="matrix(266.567,0,0,266.567,11777.9,2112.08)">
            <path d="M0.191,-0C0.166,-0 0.143,-0.006 0.123,-0.018C0.102,-0.03 0.086,-0.046 0.074,-0.067C0.062,-0.087 0.056,-0.11 0.056,-0.135L0.056,-0.585C0.056,-0.61 0.062,-0.633 0.074,-0.653C0.086,-0.674 0.102,-0.69 0.123,-0.702C0.143,-0.714 0.166,-0.72 0.191,-0.72L0.774,-0.72L0.774,-0.599L0.212,-0.599C0.201,-0.599 0.193,-0.596 0.186,-0.59C0.179,-0.583 0.176,-0.575 0.176,-0.564L0.176,-0.156C0.176,-0.146 0.179,-0.137 0.186,-0.13C0.193,-0.124 0.201,-0.121 0.212,-0.121L0.774,-0.121L0.774,-0L0.191,-0Z" style="fill:white;fill-rule:nonzero;"/>
        </g>
        <g transform="matrix(266.567,0,0,266.567,11997,2112.08)">
            <path d="M0.058,-0L0.058,-0.72L0.719,-0.72L0.719,-0.599L0.179,-0.599L0.179,-0.421L0.614,-0.421L0.614,-0.3L0.179,-0.3L0.179,-0.121L0.719,-0.121L0.719,-0L0.058,-0Z" style="fill:white;fill-rule:nonzero;"/>
        </g>
        <g transform="matrix(266.567,0,0,266.567,12201.2,2112.08)">
        </g>
    </g>
</svg>
