<svg xmlns="http://www.w3.org/2000/svg" viewBox="0 0 605.79 475.51"><defs><style>.cls-1{fill:#fff;}</style></defs><g id="Layer_2" data-name="Layer 2"><g id="Layer_1-2" data-name="Layer 1"><path class="cls-1" d="M394.33,244.16c-6.33,1.18-11.23.26-16.11-4.78-22.84-23.55-46.16-46.63-69.31-69.88-.81-.81-1.56-1.68-1.66-1.79,7.26-4.27,15.21-7.74,21.67-13,9.41-7.69,14-18.36,14-30.76q0-58.71,0-117.43V.36h51.42Z"/><path class="cls-1" d="M203.43.52c6.48-1.5,11.09.28,15.69,5,22.69,23.26,45.77,46.13,68.73,69.11,1,1,2.28,1.88,4.15,3.41-10.33,2.49-18.54,6.49-25.1,13.43-7.77,8.2-12,17.8-12,29.22q0,58.48,0,117v6.63H203.43Z"/><path class="cls-1" d="M18.37,393.67H0v-101c8.47,0,16.91-.18,25.32.18,1.36.06,3,2.33,3.88,3.91q19.26,33,38.35,66c.79,1.37,1.67,2.69,2.79,4.47V292.9H89V393.84c-8.65,0-17.24.15-25.82-.17-1.22-.05-2.65-2.2-3.49-3.65q-19.51-33.67-38.89-67.43c-.65-1.12-1.39-2.2-2.47-3.91Z"/><path class="cls-1" d="M286,345.26c-.86,5.09-1.46,11.77-3.15,18.16-4.8,18.17-16.89,28.76-35.42,31.19a77.41,77.41,0,0,1-21.87-.28c-18.56-3-29.91-14.37-34.45-32.43a76.45,76.45,0,0,1,0-37.6c4.75-19.05,17.46-30.31,37-32.63,16.42-2,32-.37,44.47,12.25,7.48,7.59,10.61,17.16,12.19,27.35C285.41,335.38,285.53,339.56,286,345.26Zm-22.33-2.21c-1.41-6.39-2.37-13.51-4.59-20.2-3.26-9.82-11.29-13.55-21-13.75s-18,3.1-22,12.48a52.59,52.59,0,0,0-.16,42.67c4.5,10.54,13.56,13.41,24.25,12.69,9.9-.66,16.66-5.72,19.63-15C261.6,356.1,262.3,349.94,263.69,343.05Z"/><path class="cls-1" d="M522.31,393.86c-6.92,0-13.41.19-19.88-.15a5.57,5.57,0,0,1-3.9-3.13c-2.1-5.77-3.58-11.78-5.69-17.55a5.56,5.56,0,0,0-4-3c-10-.26-20-.05-30-.19-2.66,0-3.76.9-4.45,3.42-1.61,5.94-3.42,11.83-5.49,17.61a5.14,5.14,0,0,1-3.61,2.89c-6.65.29-13.31.13-20.6.13,4.11-11.7,8.07-22.95,12-34.2,7.38-21,14.86-42,22.05-63.11,1.25-3.67,3-4.85,6.77-4.65,6,.31,12-.11,18,.22,1.5.08,3.76,1.49,4.23,2.81,11.55,32.25,22.9,64.57,34.27,96.88A12.93,12.93,0,0,1,522.31,393.86Zm-48.53-84.45-12.6,42h25.54C482.47,337.6,478.35,324.22,473.78,309.41Z"/><path class="cls-1" d="M557.1,358.59v35h-21V293c1.24-.1,2.67-.34,4.09-.32,13.13.25,26.4-.55,39.37,1.07,17.35,2.18,26.07,13.31,26.2,30.34.13,17.27-9.58,29.7-26.23,32.63C572.43,358,565.07,358,557.1,358.59Zm.21-18.6c9.11-.29,18.42,1.78,24.39-7.18,3.28-4.93,2.86-13.36-1-17.42-6.61-7.06-15.16-4.57-23.44-4.92Z"/><path class="cls-1" d="M114.91,393.57V293h57.68v17.39h-36.2v21.75h33.55V350H136.46v26h36.17v17.57Z"/><path class="cls-1" d="M420.23,298.6c-2.27,5.76-4.45,11.3-6.78,17.2-3.58-1.39-6.9-2.77-10.27-4-19.22-6.91-33.57.81-36.65,20.9a79.22,79.22,0,0,0,.81,26.19c2.44,12.94,12,19.48,25.19,18.2,7.73-.76,15.33-2.71,23.79-4.27,0,5,.12,10.56-.13,16.08,0,.84-1.66,1.94-2.76,2.33-13.52,4.76-27.31,5.81-41.19,1.91-12.43-3.5-20.74-11.83-25-23.82a72.43,72.43,0,0,1-1.24-46.6c6.45-20.9,24.59-33.11,46.48-31.7C402.73,291.7,412.68,294.35,420.23,298.6Z"/><path class="cls-1" d="M409.78,439.19l22.29,30.4,1.26-.15V440l1.6,0v34.59l-1.31.89-22.48-30.58-1.23.4v29.37h-1.39V440.19Z"/><path class="cls-1" d="M389.88,457.16c.07,10.63-7.24,18.25-17.55,18.28s-17.68-7.49-17.7-18.13,7.44-18.13,17.79-18.05C382.5,439.33,389.81,446.83,389.88,457.16Zm-17.55,16.09c9,0,15.4-6.78,15.29-16.12s-6.38-15.65-15.22-15.66c-9.24,0-15.44,6.36-15.45,15.86S363.11,473.25,372.33,473.25Z"/><path class="cls-1" d="M160.6,457.31c0-10.61,7.41-18.11,17.8-18,10.11.08,17.39,7.52,17.46,17.86.07,10.64-7.24,18.26-17.55,18.29S160.6,467.93,160.6,457.31Zm17.45,15.94c9,.11,15.49-6.48,15.55-15.87.06-9.14-6.17-15.76-15-15.92-9.21-.17-15.6,6.19-15.7,15.62S168.89,473.14,178.05,473.25Z"/><path class="cls-1" d="M453.07,468.79c4.33,1.51,8.48,3.31,12.83,4.32a9.77,9.77,0,0,0,6.72-1c2.14-1.32,4.79-3.82,4.86-5.88s-2.46-5-4.57-6c-3.7-1.74-8-2.18-12-3.36-4.44-1.32-8.18-3.64-7.67-9,.49-5,4-7.25,8.75-8.15,7.39-1.41,13.08.35,16.6,6.09-1.67-.83-2.58-1.18-3.37-1.7-4.65-3-9.77-3.84-14.71-1.61-2.12.95-4.45,3.83-4.61,6-.14,1.78,2.43,4.48,4.45,5.53,2.86,1.5,6.34,1.79,9.53,2.72A30.89,30.89,0,0,1,476,459a8,8,0,0,1,2.19,12.36C472.54,478,457.45,476.37,453.07,468.79Z"/><path class="cls-1" d="M142.6,445.57c-1-.61-2-1.24-3.08-1.84-4.77-2.76-9.88-3.34-14.76-.89-1.87.93-3.91,3.61-3.93,5.51s2,4.51,3.89,5.46c3,1.56,6.63,2,10,3a33.23,33.23,0,0,1,6.09,2.12c5.6,3,5.87,10.3.63,13.94-6.25,4.35-18,3-23-2.65-.35-.39-.34-1.09-.84-2.85l3.86,2.66c5.33,3.72,11.18,4.53,17,1.8a8.34,8.34,0,0,0,4.13-5.9c.11-1.76-2.13-4.51-4-5.37-3.56-1.64-7.62-2.2-11.45-3.29-6.46-1.86-9.16-4.67-8.89-9.13s3.88-8.28,10.11-8.4c4.53-.08,9.12,1.92,13.63,3.16.59.16.9,1.35,1.33,2.06Z"/><path class="cls-1" d="M250.51,440c.12,1.5.33,3,.34,4.51,0,5.66,0,11.33,0,17,.1,7.06,4.33,11.56,10.89,11.73,6.85.17,11.41-4.23,11.63-11.52.17-5.66,0-11.33,0-17,0-1.56.17-3.13.27-4.75a10.82,10.82,0,0,1,1.55.24c0,8.58.59,17.24-.35,25.73-.66,6-6.19,9.31-12.41,9.48s-12.14-3-13-8.79c-1.24-8.74-1-17.68-1.43-26.54Z"/><path class="cls-1" d="M304.88,441.54H291.93c0-.4.05-.8.07-1.2h27.3l.06,1.17H306.72v33.07l-1.84.05Z"/><path class="cls-1" d="M213.19,474.14V440.06l1.68-.08c.73,10.73-.06,21.56.45,32.86h19.46c0,.43,0,.87.05,1.3Z"/><ellipse class="cls-1" cx="336.06" cy="457.36" rx="0.82" ry="24.44"/></g></g></svg>